<svg width="40" height="40" viewBox="0 0 40 40" fill="none" xmlns="http://www.w3.org/2000/svg">
<circle cx="20" cy="20" r="20" fill="white"/>
<path d="M10.0113 22V18.372H9.07533V17.312H12.2993V18.372H11.3633V22H10.0113ZM14.494 19.932C14.494 19.5933 14.4767 19.3533 14.442 19.212C14.4074 19.0707 14.3434 19 14.25 19C14.17 19 14.1047 19.0147 14.054 19.044C14.0034 19.0707 13.966 19.1147 13.942 19.176C13.918 19.2347 13.902 19.296 13.894 19.36C13.8887 19.4213 13.886 19.5 13.886 19.596V19.932H14.494ZM14.174 22.084C13.8754 22.084 13.6154 22.0387 13.394 21.948C13.1754 21.8573 13.002 21.7307 12.874 21.568C12.7487 21.4053 12.6567 21.2227 12.598 21.02C12.5394 20.8147 12.51 20.5867 12.51 20.336C12.51 19.7387 12.662 19.2867 12.966 18.98C13.27 18.6733 13.6954 18.52 14.242 18.52C14.7674 18.52 15.1434 18.644 15.37 18.892C15.5967 19.1373 15.71 19.5333 15.71 20.08V20.524H13.882V20.6C13.882 20.7573 13.898 20.8867 13.93 20.988C13.9647 21.0893 14.014 21.164 14.078 21.212C14.142 21.26 14.2074 21.292 14.274 21.308C14.3407 21.324 14.422 21.332 14.518 21.332C14.6114 21.332 14.7114 21.32 14.818 21.296C14.9274 21.272 15.0367 21.2347 15.146 21.184C15.258 21.1333 15.3514 21.0733 15.426 21.004L15.662 21.408C15.5634 21.568 15.418 21.7027 15.226 21.812C15.0367 21.9187 14.854 21.9907 14.678 22.028C14.502 22.0653 14.334 22.084 14.174 22.084ZM18.8194 21.668L18.7834 21.712C18.7594 21.7387 18.7167 21.7733 18.6554 21.816C18.5967 21.856 18.5247 21.8973 18.4394 21.94C18.3567 21.98 18.2447 22.0133 18.1034 22.04C17.9647 22.0693 17.8154 22.084 17.6554 22.084C17.114 22.084 16.6994 21.9253 16.4114 21.608C16.126 21.2907 15.9834 20.8707 15.9834 20.348C15.9834 20.0653 16.0274 19.808 16.1154 19.576C16.2034 19.344 16.3234 19.152 16.4754 19C16.63 18.8453 16.81 18.7267 17.0154 18.644C17.2234 18.5587 17.4474 18.516 17.6874 18.516C18.1514 18.516 18.5114 18.6267 18.7674 18.848C18.8234 18.904 18.8514 18.932 18.8514 18.932L18.7914 19.872L18.2234 19.876L17.9954 19.264C17.974 19.2587 17.9447 19.256 17.9074 19.256C17.6647 19.256 17.4967 19.34 17.4034 19.508C17.3127 19.6733 17.2674 19.9613 17.2674 20.372C17.2674 20.5507 17.282 20.704 17.3114 20.832C17.3407 20.9573 17.374 21.052 17.4114 21.116C17.4487 21.1773 17.498 21.2253 17.5594 21.26C17.6234 21.2947 17.6754 21.3147 17.7154 21.32C17.7554 21.3253 17.8047 21.328 17.8634 21.328C17.9967 21.328 18.1327 21.312 18.2714 21.28C18.4127 21.248 18.5287 21.196 18.6194 21.124L18.8194 21.668Z" fill="black"/>
<path d="M20.5288 22H19.2048V17.312H20.5288V19.168H21.5568V17.312H22.8808V22H21.5568V20.088H20.5288V22ZM26.6493 21.216C26.8387 21.216 26.9773 21.1627 27.0653 21.056C27.1533 20.9493 27.1973 20.8227 27.1973 20.676V20.396C27.1973 20.2227 27.1413 20.1 27.0293 20.028C26.9173 19.9533 26.7907 19.916 26.6493 19.916H26.3373V21.216H26.6493ZM27.1413 18.512C27.1413 18.352 27.0973 18.2413 27.0093 18.18C26.9213 18.116 26.7947 18.084 26.6293 18.084H26.3373V19.24H26.6613C26.816 19.24 26.9347 19.18 27.0173 19.06C27.1 18.9373 27.1413 18.788 27.1413 18.612V18.512ZM26.9213 22.036C26.7133 22.036 26.444 22.0307 26.1133 22.02C25.7827 22.0093 25.5453 22.0027 25.4013 22H25.0173V17.312H25.7093C25.8773 17.312 26.0693 17.3067 26.2853 17.296C26.5013 17.2827 26.6573 17.276 26.7533 17.276C27.0653 17.276 27.328 17.3013 27.5413 17.352C27.7573 17.4027 27.9267 17.4787 28.0493 17.58C28.172 17.6813 28.2587 17.7987 28.3093 17.932C28.3627 18.0653 28.3893 18.224 28.3893 18.408C28.3893 18.6907 28.324 18.9333 28.1933 19.136C28.0627 19.3387 27.8733 19.4653 27.6253 19.516C28.2547 19.572 28.5693 19.9413 28.5693 20.624C28.5693 20.8293 28.5387 21.016 28.4773 21.184C28.416 21.3493 28.3213 21.4973 28.1933 21.628C28.068 21.756 27.8973 21.856 27.6813 21.928C27.4653 22 27.212 22.036 26.9213 22.036ZM31.2111 22C31.1791 21.96 31.1098 21.804 31.0031 21.532C30.8991 21.2573 30.7764 20.948 30.6351 20.604C30.4964 20.2573 30.3738 19.9947 30.2671 19.816V22H28.9431V17.312H30.2671V19.556L31.2631 17.312H32.5951L31.4031 19.512C31.4804 19.5653 31.5831 19.7107 31.7111 19.948C31.8391 20.1853 31.9591 20.4347 32.0711 20.696C32.1831 20.9573 32.2991 21.22 32.4191 21.484C32.5391 21.7453 32.6271 21.9173 32.6831 22H31.2111Z" fill="#02165C"/>
<path d="M24.0007 22.6C23.3705 24.6437 22.0186 26.4016 20.1865 27.5598C18.3543 28.7181 16.1611 29.2012 13.9985 28.9231C11.8359 28.6449 9.84475 27.6236 8.38058 26.0413C6.9164 24.4591 6.07453 22.4191 6.00531 20.2855C5.93608 18.1519 6.64401 16.0637 8.00267 14.3937C9.36133 12.7238 11.2823 11.5808 13.4225 11.1689C15.5627 10.7571 17.7828 11.1031 19.6863 12.1453C21.5899 13.1874 23.053 14.8578 23.8144 16.8582" stroke="black"/>
</svg>
