<svg width="24" height="6" viewBox="0 0 24 6" fill="none" xmlns="http://www.w3.org/2000/svg">
<path d="M1.01133 5V1.372H0.0753286V0.312H3.29933V1.372H2.36333V5H1.01133ZM5.49405 2.932C5.49405 2.59333 5.47671 2.35333 5.44205 2.212C5.40738 2.07067 5.34338 2 5.25005 2C5.17005 2 5.10471 2.01467 5.05405 2.044C5.00338 2.07067 4.96605 2.11467 4.94205 2.176C4.91805 2.23467 4.90205 2.296 4.89405 2.36C4.88871 2.42133 4.88605 2.5 4.88605 2.596V2.932H5.49405ZM5.17405 5.084C4.87538 5.084 4.61538 5.03867 4.39405 4.948C4.17538 4.85733 4.00205 4.73067 3.87405 4.568C3.74871 4.40533 3.65671 4.22267 3.59805 4.02C3.53938 3.81467 3.51005 3.58667 3.51005 3.336C3.51005 2.73867 3.66205 2.28667 3.96605 1.98C4.27005 1.67333 4.69538 1.52 5.24205 1.52C5.76738 1.52 6.14338 1.644 6.37005 1.892C6.59671 2.13733 6.71005 2.53333 6.71005 3.08V3.524H4.88205V3.6C4.88205 3.75733 4.89805 3.88667 4.93005 3.988C4.96471 4.08933 5.01405 4.164 5.07805 4.212C5.14205 4.26 5.20738 4.292 5.27405 4.308C5.34071 4.324 5.42205 4.332 5.51805 4.332C5.61138 4.332 5.71138 4.32 5.81805 4.296C5.92738 4.272 6.03671 4.23467 6.14605 4.184C6.25805 4.13333 6.35138 4.07333 6.42605 4.004L6.66205 4.408C6.56338 4.568 6.41805 4.70267 6.22605 4.812C6.03671 4.91867 5.85405 4.99067 5.67805 5.028C5.50205 5.06533 5.33405 5.084 5.17405 5.084ZM9.81936 4.668L9.78336 4.712C9.75936 4.73867 9.71669 4.77333 9.65536 4.816C9.59669 4.856 9.52469 4.89733 9.43936 4.94C9.35669 4.98 9.24469 5.01333 9.10336 5.04C8.96469 5.06933 8.81536 5.084 8.65536 5.084C8.11403 5.084 7.69936 4.92533 7.41136 4.608C7.12603 4.29067 6.98336 3.87067 6.98336 3.348C6.98336 3.06533 7.02736 2.808 7.11536 2.576C7.20336 2.344 7.32336 2.152 7.47536 2C7.63003 1.84533 7.81003 1.72667 8.01536 1.644C8.22336 1.55867 8.44736 1.516 8.68736 1.516C9.15136 1.516 9.51136 1.62667 9.76736 1.848C9.82336 1.904 9.85136 1.932 9.85136 1.932L9.79136 2.872L9.22336 2.876L8.99536 2.264C8.97403 2.25867 8.94469 2.256 8.90736 2.256C8.66469 2.256 8.49669 2.34 8.40336 2.508C8.31269 2.67333 8.26736 2.96133 8.26736 3.372C8.26736 3.55067 8.28203 3.704 8.31136 3.832C8.34069 3.95733 8.37403 4.052 8.41136 4.116C8.44869 4.17733 8.49803 4.22533 8.55936 4.26C8.62336 4.29467 8.67536 4.31467 8.71536 4.32C8.75536 4.32533 8.80469 4.328 8.86336 4.328C8.99669 4.328 9.13269 4.312 9.27136 4.28C9.41269 4.248 9.52869 4.196 9.61936 4.124L9.81936 4.668Z" fill="black"/>
<path d="M11.5288 5H10.2048V0.312H11.5288V2.168H12.5568V0.312H13.8808V5H12.5568V3.088H11.5288V5ZM17.6493 4.216C17.8387 4.216 17.9773 4.16267 18.0653 4.056C18.1533 3.94933 18.1973 3.82267 18.1973 3.676V3.396C18.1973 3.22267 18.1413 3.1 18.0293 3.028C17.9173 2.95333 17.7907 2.916 17.6493 2.916H17.3373V4.216H17.6493ZM18.1413 1.512C18.1413 1.352 18.0973 1.24133 18.0093 1.18C17.9213 1.116 17.7947 1.084 17.6293 1.084H17.3373V2.24H17.6613C17.816 2.24 17.9347 2.18 18.0173 2.06C18.1 1.93733 18.1413 1.788 18.1413 1.612V1.512ZM17.9213 5.036C17.7133 5.036 17.444 5.03067 17.1133 5.02C16.7827 5.00933 16.5453 5.00267 16.4013 5H16.0173V0.312H16.7093C16.8773 0.312 17.0693 0.306667 17.2853 0.296C17.5013 0.282667 17.6573 0.276 17.7533 0.276C18.0653 0.276 18.328 0.301333 18.5413 0.352C18.7573 0.402667 18.9267 0.478667 19.0493 0.58C19.172 0.681333 19.2587 0.798667 19.3093 0.932C19.3627 1.06533 19.3893 1.224 19.3893 1.408C19.3893 1.69067 19.324 1.93333 19.1933 2.136C19.0627 2.33867 18.8733 2.46533 18.6253 2.516C19.2547 2.572 19.5693 2.94133 19.5693 3.624C19.5693 3.82933 19.5387 4.016 19.4773 4.184C19.416 4.34933 19.3213 4.49733 19.1933 4.628C19.068 4.756 18.8973 4.856 18.6813 4.928C18.4653 5 18.212 5.036 17.9213 5.036ZM22.2111 5C22.1791 4.96 22.1098 4.804 22.0031 4.532C21.8991 4.25733 21.7764 3.948 21.6351 3.604C21.4964 3.25733 21.3738 2.99467 21.2671 2.816V5H19.9431V0.312H21.2671V2.556L22.2631 0.312H23.5951L22.4031 2.512C22.4804 2.56533 22.5831 2.71067 22.7111 2.948C22.8391 3.18533 22.9591 3.43467 23.0711 3.696C23.1831 3.95733 23.2991 4.22 23.4191 4.484C23.5391 4.74533 23.6271 4.91733 23.6831 5H22.2111Z" fill="#02165C"/>
</svg>
